<?xml version="1.0" encoding="iso-8859-1"?>
<!-- Generator: Adobe Illustrator 19.0.0, SVG Export Plug-In . SVG Version: 6.00 Build 0)  -->
<svg version="1.1" id="Layer_1" xmlns="http://www.w3.org/2000/svg" xmlns:xlink="http://www.w3.org/1999/xlink" x="0px" y="0px"
	 viewBox="0 0 512 512" style="enable-background:new 0 0 512 512;" xml:space="preserve">
<circle style="fill:#E16B5A;" cx="256" cy="256" r="256"/>
<path style="fill:#CC6152;" d="M481.144,377.936c-0.128-0.316-0.252-0.636-0.388-0.952c-0.272-0.676-0.532-1.364-0.82-2.04
	c-0.28-0.688-0.548-1.384-0.836-2.068c-0.276-0.68-0.54-1.372-0.828-2.048c-0.276-0.684-0.54-1.376-0.828-2.052
	c-0.276-0.68-0.54-1.376-0.828-2.048c-0.276-0.688-0.54-1.38-0.828-2.056c-0.276-0.68-0.54-1.372-0.828-2.048
	c-0.276-0.688-0.54-1.376-0.828-2.056c-0.276-0.68-0.54-1.372-0.828-2.048c-0.276-0.684-0.54-1.376-0.828-2.052
	c-0.264-0.652-0.512-1.312-0.784-1.956c-0.284-0.712-0.564-1.436-0.868-2.14c-0.276-0.684-0.544-1.376-0.828-2.052
	c-0.276-0.68-0.544-1.372-0.828-2.048c-0.276-0.684-0.54-1.38-0.828-2.052c-0.276-0.68-0.54-1.376-0.828-2.052
	c-0.276-0.684-0.54-1.376-0.828-2.052c-0.276-0.68-0.54-1.376-0.828-2.048c-0.276-0.688-0.54-1.376-0.828-2.056
	c-0.268-0.676-0.532-1.36-0.82-2.032c-0.276-0.688-0.544-1.384-0.836-2.064c-0.276-0.688-0.54-1.376-0.828-2.056
	c-0.276-0.68-0.54-1.372-0.824-2.048c-0.28-0.684-0.544-1.376-0.828-2.052c-0.28-0.684-0.544-1.372-0.828-2.052
	c-0.28-0.68-0.544-1.376-0.828-2.052c-0.264-0.656-0.516-1.324-0.796-1.972c-0.284-0.708-0.556-1.42-0.86-2.124
	c-0.272-0.68-0.54-1.368-0.828-2.048c-0.268-0.676-0.532-1.364-0.82-2.036c-0.276-0.688-0.54-1.384-0.836-2.068
	c-0.272-0.68-0.54-1.376-0.828-2.048c-0.272-0.688-0.54-1.38-0.828-2.056c-0.272-0.68-0.54-1.372-0.828-2.048
	c-0.272-0.688-0.54-1.376-0.828-2.056c-0.272-0.68-0.54-1.372-0.828-2.048c-0.272-0.684-0.54-1.376-0.828-2.052
	c-0.272-0.68-0.54-1.372-0.824-2.052c-0.276-0.68-0.544-1.376-0.828-2.048c-0.272-0.68-0.536-1.364-0.82-2.036
	c-0.28-0.688-0.544-1.384-0.836-2.064c-0.26-0.66-0.516-1.324-0.792-1.976c-0.288-0.708-0.56-1.424-0.86-2.124
	c-0.272-0.684-0.54-1.376-0.828-2.052c-0.272-0.68-0.54-1.376-0.828-2.048c-0.272-0.688-0.54-1.38-0.828-2.056
	c-0.272-0.68-0.54-1.372-0.828-2.048c-0.272-0.684-0.54-1.376-0.828-2.056c-0.272-0.68-0.54-1.368-0.828-2.048
	c-0.272-0.676-0.532-1.364-0.82-2.036c-0.28-0.688-0.544-1.384-0.836-2.068c-0.272-0.68-0.54-1.376-0.828-2.048
	c-0.272-0.688-0.54-1.38-0.828-2.056c-0.272-0.68-0.54-1.372-0.828-2.048c-0.272-0.684-0.54-1.376-0.828-2.056
	c-0.272-0.68-0.54-1.372-0.828-2.048c-0.26-0.66-0.516-1.32-0.788-1.976c-0.288-0.708-0.564-1.42-0.86-2.124
	c-0.276-0.68-0.544-1.372-0.828-2.048c-0.276-0.68-0.544-1.372-0.828-2.048c-0.272-0.676-0.532-1.364-0.82-2.036
	c-0.28-0.688-0.548-1.384-0.836-2.068c-0.276-0.68-0.54-1.372-0.828-2.048c-0.276-0.684-0.54-1.376-0.828-2.052
	c-0.276-0.68-0.54-1.372-0.828-2.048c-0.276-0.684-0.54-1.376-0.828-2.052c-0.276-0.68-0.54-1.372-0.828-2.048
	c-0.276-0.684-0.54-1.376-0.828-2.052c-0.276-0.68-0.54-1.372-0.828-2.048c-0.276-0.684-0.54-1.376-0.828-2.052
	c-0.272-0.676-0.532-1.36-0.82-2.032c-0.264-0.664-0.52-1.332-0.8-1.992c-0.284-0.708-0.56-1.424-0.86-2.124
	c-0.276-0.68-0.544-1.372-0.828-2.048c-0.276-0.684-0.544-1.376-0.828-2.052c-0.276-0.68-0.54-1.372-0.828-2.048
	c-0.276-0.684-0.54-1.376-0.828-2.052c-0.276-0.68-0.54-1.372-0.828-2.048c-15.8-38.832-50.832-67.632-93.128-74.248
	c-19.9-14.572-44.352-23.188-70.808-23.188c-58.252,0-106.868,41.66-118.28,97.088c-0.364-0.004-0.712-0.052-1.076-0.052
	c-2.336,0-4.64,0.144-6.92,0.348c-0.612,0.056-1.22,0.112-1.824,0.18c-2.156,0.248-4.296,0.552-6.392,0.976
	c-0.576,0.116-1.136,0.272-1.708,0.4c-1.516,0.344-3.016,0.728-4.496,1.156c-0.908,0.264-1.812,0.532-2.704,0.828
	c-1.364,0.452-2.708,0.952-4.036,1.476c-1.416,0.556-2.804,1.16-4.176,1.796c-0.768,0.356-1.532,0.72-2.284,1.1
	c-1.12,0.564-2.232,1.136-3.316,1.752c-0.008,0.004-0.02,0.008-0.028,0.016h0.008c-23.276,13.216-39.004,38.18-39.004,66.852
	c0,10.052,1.98,19.616,5.488,28.412c0.252,0.696,0.556,1.364,0.828,2.052c0.252,0.688,0.548,1.352,0.82,2.032
	c0.256,0.7,0.56,1.38,0.832,2.072c0.252,0.692,0.556,1.364,0.828,2.048c0.252,0.696,0.556,1.368,0.828,2.056
	c0.252,0.692,0.556,1.364,0.828,2.048c0.252,0.692,0.552,1.36,0.828,2.044c0.252,0.7,0.556,1.372,0.832,2.06
	c0.252,0.696,0.556,1.368,0.828,2.052c0.252,0.688,0.548,1.352,0.82,2.028c0.256,0.7,0.56,1.376,0.832,2.072
	c0.252,0.696,0.556,1.36,0.828,2.048c0.252,0.696,0.556,1.368,0.828,2.052c0.252,0.696,0.556,1.364,0.828,2.052
	c0.252,0.696,0.556,1.368,0.828,2.048c0.252,0.696,0.556,1.368,0.828,2.056c0.252,0.684,0.548,1.344,0.816,2.02
	c0.256,0.704,0.56,1.384,0.836,2.076c0.252,0.696,0.556,1.368,0.828,2.056c0.252,0.692,0.556,1.364,0.828,2.048
	c0.252,0.696,0.556,1.364,0.828,2.056c0.252,0.688,0.556,1.36,0.828,2.048c0.252,0.696,0.556,1.364,0.828,2.052
	c0.252,0.692,0.556,1.364,0.828,2.048c0.252,0.692,0.548,1.356,0.82,2.028c0.256,0.704,0.56,1.376,0.832,2.072
	c0.252,0.696,0.556,1.364,0.828,2.052c0.252,0.692,0.552,1.36,0.828,2.044c0.252,0.696,0.556,1.368,0.832,2.056
	c0.252,0.696,0.556,1.364,0.828,2.052c0.252,0.692,0.556,1.364,0.828,2.048c0.252,0.7,0.556,1.364,0.828,2.052
	c0.252,0.688,0.548,1.352,0.82,2.032c0.256,0.7,0.56,1.38,0.832,2.072c0.252,0.696,0.556,1.368,0.828,2.048
	c0.252,0.696,0.556,1.368,0.828,2.056c0.252,0.692,0.556,1.364,0.828,2.048c0.252,0.692,0.552,1.36,0.828,2.048
	c0.252,0.696,0.556,1.368,0.832,2.056c0.252,0.692,0.548,1.352,0.82,2.032c0.256,0.7,0.56,1.38,0.832,2.072
	c0.252,0.696,0.556,1.368,0.828,2.048c0.252,0.7,0.556,1.368,0.828,2.056c0.252,0.692,0.556,1.364,0.828,2.048
	c0.252,0.696,0.556,1.368,0.828,2.056c0.252,0.688,0.556,1.36,0.828,2.048c0.252,0.696,0.556,1.364,0.828,2.052
	c0.252,0.684,0.548,1.344,0.816,2.02c0.256,0.704,0.56,1.384,0.836,2.08c0.252,0.696,0.556,1.364,0.828,2.052
	c0.252,0.692,0.556,1.364,0.828,2.048c0.252,0.7,0.556,1.364,0.828,2.052c0.252,0.696,0.556,1.368,0.828,2.052
	c0.252,0.696,0.556,1.364,0.828,2.052c0.252,0.688,0.548,1.348,0.82,2.032c0.256,0.696,0.56,1.376,0.832,2.072
	c0.252,0.692,0.556,1.364,0.828,2.048c0.252,0.692,0.552,1.36,0.828,2.048c0.252,0.696,0.556,1.368,0.832,2.056
	c0.252,0.696,0.556,1.368,0.828,2.052c0.252,0.696,0.556,1.364,0.828,2.052c0.252,0.696,0.556,1.368,0.828,2.048
	c0.252,0.692,0.548,1.352,0.82,2.032c0.256,0.7,0.56,1.376,0.832,2.068c0.252,0.7,0.556,1.364,0.828,2.052
	c0.252,0.696,0.556,1.368,0.828,2.052c0.252,0.692,0.552,1.36,0.828,2.044c0.252,0.696,0.556,1.368,0.832,2.064
	c0.252,0.688,0.556,1.36,0.828,2.048c0.252,0.688,0.548,1.352,0.82,2.028c0.256,0.7,0.56,1.376,0.832,2.068
	c0.252,0.696,0.556,1.368,0.828,2.056c0.252,0.692,0.556,1.364,0.828,2.048c0.252,0.696,0.556,1.364,0.828,2.052
	c0.156,0.424,0.332,0.84,0.508,1.256C161.96,498.456,207.4,512,256,512C353.236,512,437.804,457.788,481.144,377.936z"/>
<g>
	<path style="fill:#F5F5F5;" d="M96.076,315.252c0-44.956,35.236-81.844,79.584-84.584c14.632-56.696,66.068-97.2,124.664-97.2
		c1.232,0,2.448,0.06,3.676,0.092c-16.708-8.82-35.696-13.832-55.852-13.832c-58.252,0-106.868,41.66-118.28,97.088
		c-0.364-0.004-0.712-0.052-1.076-0.052c-42.464,0-76.888,35.156-76.888,77.616c0,38.516,28.348,70.92,65.3,76.636
		C104.092,356.092,96.076,336.608,96.076,315.252z"/>
	<path style="fill:#F5F5F5;" d="M424.736,274.512c0.32-3.612,0.508-7.268,0.508-10.972c0-67.416-54.088-122.08-120.82-122.08
		c-58.252,0-106.868,41.66-118.276,97.088c-0.364-0.004-0.716-0.052-1.08-0.052c-42.464,0-76.888,34.284-76.888,76.752
		S142.596,392,185.064,392h207.232C427.48,392,456,363.78,456,328.804C456,305.62,443.428,285.548,424.736,274.512z"/>
</g>
<g>
</g>
<g>
</g>
<g>
</g>
<g>
</g>
<g>
</g>
<g>
</g>
<g>
</g>
<g>
</g>
<g>
</g>
<g>
</g>
<g>
</g>
<g>
</g>
<g>
</g>
<g>
</g>
<g>
</g>
</svg>
