<?xml version="1.0" encoding="iso-8859-1"?>
<!-- Generator: Adobe Illustrator 19.0.0, SVG Export Plug-In . SVG Version: 6.00 Build 0)  -->
<svg version="1.1" id="Layer_1" xmlns="http://www.w3.org/2000/svg" xmlns:xlink="http://www.w3.org/1999/xlink" x="0px" y="0px"
	 viewBox="0 0 512 512" style="enable-background:new 0 0 512 512;" xml:space="preserve">
<circle style="fill:#E16B5A;" cx="256" cy="256" r="256"/>
<path style="fill:#E6E6E6;" d="M351.812,424c0,6.628-5.372,12-12,12h-168c-6.628,0-12-5.372-12-12V88c0-6.628,5.372-12,12-12h168
	c6.628,0,12,5.372,12,12V424z"/>
<rect x="163.812" y="112" style="fill:#395F73;" width="184" height="264"/>
<g>
	<rect x="167.812" y="116" style="fill:#406A80;" width="176" height="256"/>
	<circle style="fill:#406A80;" cx="255.812" cy="88" r="4"/>
	<path style="fill:#406A80;" d="M275.812,104h-40c-2.208,0-4-1.792-4-4s1.792-4,4-4h40c2.208,0,4,1.792,4,4S278.02,104,275.812,104z
		"/>
</g>
<g>
	<path style="fill:#E6E6E6;" d="M327.812,80h-16c-2.208,0-4-1.792-4-4s1.792-4,4-4h16c2.208,0,4,1.792,4,4S330.02,80,327.812,80z"/>
	<path style="fill:#E6E6E6;" d="M159.812,128c-2.208,0-4-1.792-4-4v-16c0-2.208,1.792-4,4-4s4,1.792,4,4v16
		C163.812,126.208,162.02,128,159.812,128z"/>
	<path style="fill:#E6E6E6;" d="M159.812,156c-2.208,0-4-1.792-4-4v-4c0-2.208,1.792-4,4-4s4,1.792,4,4v4
		C163.812,154.208,162.02,156,159.812,156z"/>
	<path style="fill:#E6E6E6;" d="M159.812,176c-2.208,0-4-1.792-4-4v-4c0-2.208,1.792-4,4-4s4,1.792,4,4v4
		C163.812,174.208,162.02,176,159.812,176z"/>
</g>
<path style="fill:#406A80;" d="M255.812,392c-8.824,0-16,7.176-16,16s7.176,16,16,16c8.824,0,16-7.176,16-16
	S264.636,392,255.812,392z"/>
<path style="fill:#F5F5F5;" d="M275.812,292h-84c-4.4,0-8,3.6-8,8v40c0,4.4,3.6,8,8,8v12l15-12h69c4.4,0,8-3.6,8-8v-40
	C283.812,295.6,280.212,292,275.812,292z"/>
<g>
	<path style="fill:#CCCCCC;" d="M231.812,308h-32c-2.208,0-4-1.792-4-4s1.792-4,4-4h32c2.208,0,4,1.792,4,4S234.02,308,231.812,308z
		"/>
	<path style="fill:#CCCCCC;" d="M243.812,340h-44c-2.208,0-4-1.792-4-4s1.792-4,4-4h44c2.208,0,4,1.792,4,4S246.02,340,243.812,340z
		"/>
	<path style="fill:#CCCCCC;" d="M259.812,324h-60c-2.208,0-4-1.792-4-4s1.792-4,4-4h60c2.208,0,4,1.792,4,4S262.02,324,259.812,324z
		"/>
</g>
<g>
</g>
<g>
</g>
<g>
</g>
<g>
</g>
<g>
</g>
<g>
</g>
<g>
</g>
<g>
</g>
<g>
</g>
<g>
</g>
<g>
</g>
<g>
</g>
<g>
</g>
<g>
</g>
<g>
</g>
</svg>
